<svg width="26" height="26" viewBox="0 0 26 26" fill="none" xmlns="http://www.w3.org/2000/svg">
<path opacity="0.6" d="M14.9811 17.0094C14.9728 18.7794 14.1953 20.3757 12.9602 21.4599C11.8956 22.4149 10.4929 22.9883 8.95295 22.9811C5.64298 22.9655 2.96568 20.2628 2.98127 16.9529C2.99427 14.1929 4.88527 11.8618 7.42849 11.1837C8.11029 12.927 9.58396 14.2739 11.4116 14.7825C11.9109 14.9249 12.4406 14.9974 12.9906 15C13.5406 15.0026 14.0709 14.9351 14.5716 14.7974C14.8383 15.4787 14.9848 16.2294 14.9811 17.0094Z" fill="#2F0A7F"/>
<path d="M19.0188 9.0283C19.0151 9.8083 18.8616 10.5576 18.5884 11.2363C17.8902 12.973 16.4039 14.306 14.5716 14.7974C14.0709 14.9351 13.5406 15.0026 12.9906 15C12.4406 14.9974 11.9109 14.9249 11.4116 14.7825C9.58396 14.2739 8.11029 12.927 7.42849 11.1837C7.1617 10.5025 7.01523 9.75178 7.01891 8.97179C7.03449 5.66183 9.73713 2.98452 13.0471 3.00011C16.3571 3.0157 19.0344 5.71834 19.0188 9.0283Z" fill="#5030E5"/>
<path opacity="0.4" d="M22.9811 17.0471C22.9655 20.357 20.2628 23.0343 16.9529 23.0187C15.4129 23.0115 14.0156 22.4249 12.9602 21.4599C14.1953 20.3757 14.9728 18.7794 14.9811 17.0094C14.9848 16.2294 14.8383 15.4787 14.5716 14.7974C16.4039 14.306 17.8902 12.973 18.5884 11.2363C21.1251 11.9383 22.994 14.2871 22.9811 17.0471Z" fill="#1B0488"/>
</svg>
